<svg width="512" height="512" viewBox="0 0 512 512" fill="none" xmlns="http://www.w3.org/2000/svg">
<g clip-path="url(#clip0_292_19)">
<mask id="mask0_292_19" style="mask-type:alpha" maskUnits="userSpaceOnUse" x="0" y="0" width="512" height="512">
<circle cx="256" cy="256" r="256" fill="#D9D9D9"/>
</mask>
<g mask="url(#mask0_292_19)">
<rect x="-46" y="-67" width="645" height="649" fill="black"/>
<g opacity="0.72">
<mask id="mask1_292_19" style="mask-type:luminance" maskUnits="userSpaceOnUse" x="-281" y="-316" width="1000" height="1000">
<path d="M719 -316H-281V684H719V-316Z" fill="white"/>
</mask>
<g mask="url(#mask1_292_19)">
<g filter="url(#filter0_f_292_19)">
<path d="M734 -214.75H-7.875V563.375H734V-214.75Z" fill="#EE46D3"/>
<path d="M504.625 -211.625H-192.875V533.375H504.625V-211.625Z" fill="#00C5DF"/>
<path d="M455.875 17.125H-49.125V650.875H455.875V17.125Z" fill="#F2371F"/>
<path d="M392.75 -244.125H-150.375V407.75H392.75V-244.125Z" fill="#18A0FB"/>
<path d="M354 -274.125H-266V257.75H354V-274.125Z" fill="#907CFF"/>
</g>
</g>
</g>
<g style="mix-blend-mode:overlay">
<path d="M719 -316H-281V684H719V-316Z" fill="#808080"/>
</g>
<path d="M357.336 407.924C330.991 422.773 301.293 430.916 268.721 430.916C42.633 430.916 31.1371 92.263 268.721 83.641C309.436 82.204 342.487 94.179 348.714 96.095L340.571 165.55C327.159 159.802 305.125 152.138 268.721 153.096C130.29 157.886 136.517 362.419 268.721 362.419C274.948 362.419 281.654 361.461 287.881 360.503V257.518H357.336V407.924Z" fill="white"/>
</g>
</g>
<defs>
<filter id="filter0_f_292_19" x="-641" y="-649.125" width="1750" height="1675" filterUnits="userSpaceOnUse" color-interpolation-filters="sRGB">
<feFlood flood-opacity="0" result="BackgroundImageFix"/>
<feBlend mode="normal" in="SourceGraphic" in2="BackgroundImageFix" result="shape"/>
<feGaussianBlur stdDeviation="187.5" result="effect1_foregroundBlur_292_19"/>
</filter>
<clipPath id="clip0_292_19">
<rect width="512" height="512" fill="white"/>
</clipPath>
</defs>
</svg>
